<mxfile host="app.diagrams.net" modified="2024-05-08T22:58:55.488Z" agent="Mozilla/5.0 (Windows NT 10.0; Win64; x64) AppleWebKit/537.36 (KHTML, like Gecko) Chrome/124.0.0.0 Safari/537.36" etag="JqrR_6VLdvh4swAO3S2n" version="24.3.1" type="github">
  <diagram name="Page-1" id="sVjx-FbA5xJJpf9l_cIM">
    <mxGraphModel dx="3176" dy="1816" grid="1" gridSize="10" guides="1" tooltips="1" connect="1" arrows="1" fold="1" page="1" pageScale="1" pageWidth="850" pageHeight="1100" math="0" shadow="0">
      <root>
        <mxCell id="0" />
        <mxCell id="1" parent="0" />
        <mxCell id="mUfKcXC8p5mNw5h1tMZD-15" style="edgeStyle=orthogonalEdgeStyle;rounded=1;orthogonalLoop=1;jettySize=auto;html=1;exitX=0;exitY=0.5;exitDx=0;exitDy=0;entryX=0;entryY=0.5;entryDx=0;entryDy=0;curved=0;strokeWidth=4;jumpSize=6;" edge="1" parent="1" source="mUfKcXC8p5mNw5h1tMZD-1" target="mUfKcXC8p5mNw5h1tMZD-6">
          <mxGeometry relative="1" as="geometry">
            <Array as="points">
              <mxPoint x="240" y="140" />
              <mxPoint x="240" y="460" />
            </Array>
          </mxGeometry>
        </mxCell>
        <mxCell id="mUfKcXC8p5mNw5h1tMZD-1" value="" style="rounded=1;whiteSpace=wrap;html=1;" vertex="1" parent="1">
          <mxGeometry x="350" y="70" width="230" height="140" as="geometry" />
        </mxCell>
        <mxCell id="mUfKcXC8p5mNw5h1tMZD-2" value="" style="shape=image;verticalLabelPosition=bottom;labelBackgroundColor=default;verticalAlign=top;aspect=fixed;imageAspect=0;image=https://www.hsmagnets.com/wp-content/uploads/2016/05/Superconductor-electromagnets.png;" vertex="1" parent="1">
          <mxGeometry x="356" y="100" width="116.78" height="80" as="geometry" />
        </mxCell>
        <mxCell id="mUfKcXC8p5mNw5h1tMZD-3" value="" style="shape=image;verticalLabelPosition=bottom;labelBackgroundColor=default;verticalAlign=top;aspect=fixed;imageAspect=0;image=https://www.ashwinnarayan.com/img/cart-pole.png;" vertex="1" parent="1">
          <mxGeometry x="490" y="98" width="74.55" height="82" as="geometry" />
        </mxCell>
        <mxCell id="mUfKcXC8p5mNw5h1tMZD-4" value="&lt;h1&gt;Environment&lt;/h1&gt;" style="text;html=1;align=center;verticalAlign=middle;whiteSpace=wrap;rounded=0;" vertex="1" parent="1">
          <mxGeometry x="369.55" y="210" width="195" height="30" as="geometry" />
        </mxCell>
        <mxCell id="mUfKcXC8p5mNw5h1tMZD-16" style="edgeStyle=orthogonalEdgeStyle;rounded=1;orthogonalLoop=1;jettySize=auto;html=1;exitX=1;exitY=0.5;exitDx=0;exitDy=0;entryX=1;entryY=0.5;entryDx=0;entryDy=0;curved=0;strokeWidth=4;" edge="1" parent="1" source="mUfKcXC8p5mNw5h1tMZD-6" target="mUfKcXC8p5mNw5h1tMZD-1">
          <mxGeometry relative="1" as="geometry">
            <Array as="points">
              <mxPoint x="690" y="460" />
              <mxPoint x="690" y="140" />
            </Array>
          </mxGeometry>
        </mxCell>
        <mxCell id="mUfKcXC8p5mNw5h1tMZD-6" value="" style="rounded=1;whiteSpace=wrap;html=1;" vertex="1" parent="1">
          <mxGeometry x="350" y="390" width="230" height="140" as="geometry" />
        </mxCell>
        <mxCell id="mUfKcXC8p5mNw5h1tMZD-7" value="&lt;h1&gt;Agent&lt;/h1&gt;" style="text;html=1;align=center;verticalAlign=middle;whiteSpace=wrap;rounded=0;" vertex="1" parent="1">
          <mxGeometry x="437.05" y="360" width="60" height="30" as="geometry" />
        </mxCell>
        <mxCell id="mUfKcXC8p5mNw5h1tMZD-11" value="" style="endArrow=none;html=1;rounded=0;entryX=0.75;entryY=1;entryDx=0;entryDy=0;strokeWidth=1;" edge="1" parent="1">
          <mxGeometry width="50" height="50" relative="1" as="geometry">
            <mxPoint x="472.78" y="530" as="sourcePoint" />
            <mxPoint x="472.78" y="390" as="targetPoint" />
          </mxGeometry>
        </mxCell>
        <mxCell id="mUfKcXC8p5mNw5h1tMZD-12" value="" style="shape=image;verticalLabelPosition=bottom;labelBackgroundColor=default;verticalAlign=top;aspect=fixed;imageAspect=0;image=https://victorzhou.com/media/nn-series/network.png;" vertex="1" parent="1">
          <mxGeometry x="370" y="433.75" width="96.89" height="48.44" as="geometry" />
        </mxCell>
        <mxCell id="mUfKcXC8p5mNw5h1tMZD-18" style="edgeStyle=orthogonalEdgeStyle;rounded=0;orthogonalLoop=1;jettySize=auto;html=1;exitX=0;exitY=0.5;exitDx=0;exitDy=0;entryX=0;entryY=0.5;entryDx=0;entryDy=0;strokeColor=#0000FF;" edge="1" parent="1" source="mUfKcXC8p5mNw5h1tMZD-13" target="mUfKcXC8p5mNw5h1tMZD-12">
          <mxGeometry relative="1" as="geometry">
            <Array as="points">
              <mxPoint x="370" y="425" />
            </Array>
          </mxGeometry>
        </mxCell>
        <mxCell id="mUfKcXC8p5mNw5h1tMZD-13" value="&lt;font color=&quot;#3333ff&quot;&gt;States&lt;/font&gt;" style="text;html=1;align=center;verticalAlign=middle;whiteSpace=wrap;rounded=0;rotation=0;" vertex="1" parent="1">
          <mxGeometry x="377.5" y="410" width="40" height="30" as="geometry" />
        </mxCell>
        <mxCell id="mUfKcXC8p5mNw5h1tMZD-17" style="edgeStyle=orthogonalEdgeStyle;rounded=0;orthogonalLoop=1;jettySize=auto;html=1;exitX=0.5;exitY=1;exitDx=0;exitDy=0;entryX=1;entryY=0.5;entryDx=0;entryDy=0;strokeColor=#00CC00;" edge="1" parent="1" source="mUfKcXC8p5mNw5h1tMZD-14" target="mUfKcXC8p5mNw5h1tMZD-12">
          <mxGeometry relative="1" as="geometry">
            <Array as="points">
              <mxPoint x="443" y="440" />
              <mxPoint x="467" y="440" />
            </Array>
          </mxGeometry>
        </mxCell>
        <mxCell id="mUfKcXC8p5mNw5h1tMZD-14" value="&lt;font color=&quot;#00cc00&quot;&gt;Exp(R|A)&lt;/font&gt;" style="text;html=1;align=center;verticalAlign=middle;whiteSpace=wrap;rounded=0;rotation=0;" vertex="1" parent="1">
          <mxGeometry x="412.78" y="390" width="60" height="30" as="geometry" />
        </mxCell>
        <mxCell id="mUfKcXC8p5mNw5h1tMZD-19" value="Weights" style="text;html=1;align=center;verticalAlign=middle;whiteSpace=wrap;rounded=0;rotation=0;" vertex="1" parent="1">
          <mxGeometry x="382.5" y="490" width="75" height="30" as="geometry" />
        </mxCell>
        <mxCell id="mUfKcXC8p5mNw5h1tMZD-20" value="" style="strokeWidth=2;html=1;shape=mxgraph.flowchart.annotation_2;align=left;labelPosition=right;pointerEvents=1;rotation=-90;" vertex="1" parent="1">
          <mxGeometry x="415" y="465" width="10" height="50" as="geometry" />
        </mxCell>
        <mxCell id="mUfKcXC8p5mNw5h1tMZD-10" value="" style="endArrow=none;html=1;rounded=0;strokeWidth=1;entryX=0.566;entryY=0.009;entryDx=0;entryDy=0;entryPerimeter=0;" edge="1" parent="1" target="mUfKcXC8p5mNw5h1tMZD-1">
          <mxGeometry width="50" height="50" relative="1" as="geometry">
            <mxPoint x="480" y="210" as="sourcePoint" />
            <mxPoint x="480" y="79" as="targetPoint" />
            <Array as="points" />
          </mxGeometry>
        </mxCell>
        <mxCell id="mUfKcXC8p5mNw5h1tMZD-26" value="Expected Reward" style="shape=table;childLayout=tableLayout;startSize=40;collapsible=0;recursiveResize=0;expand=0;fontSize=16;" vertex="1" parent="1">
          <mxGeometry x="140" y="640" width="320" height="280" as="geometry" />
        </mxCell>
        <mxCell id="mUfKcXC8p5mNw5h1tMZD-27" value="State 1" style="shape=tableRow;horizontal=0;swimlaneHead=0;swimlaneBody=0;top=0;left=0;strokeColor=inherit;bottom=0;right=0;dropTarget=0;fontStyle=0;fillColor=none;points=[[0,0.5],[1,0.5]];portConstraint=eastwest;startSize=40;collapsible=0;recursiveResize=0;expand=0;fontSize=16;" vertex="1" parent="mUfKcXC8p5mNw5h1tMZD-26">
          <mxGeometry y="40" width="320" height="80" as="geometry" />
        </mxCell>
        <mxCell id="mUfKcXC8p5mNw5h1tMZD-28" value="Action 1" style="swimlane;swimlaneHead=0;swimlaneBody=0;fontStyle=0;strokeColor=inherit;connectable=0;fillColor=none;startSize=40;collapsible=0;recursiveResize=0;expand=0;fontSize=16;" vertex="1" parent="mUfKcXC8p5mNw5h1tMZD-27">
          <mxGeometry x="40" width="93" height="80" as="geometry">
            <mxRectangle width="93" height="80" as="alternateBounds" />
          </mxGeometry>
        </mxCell>
        <mxCell id="mUfKcXC8p5mNw5h1tMZD-40" value="13" style="text;html=1;align=center;verticalAlign=middle;whiteSpace=wrap;rounded=0;fontSize=18;" vertex="1" parent="mUfKcXC8p5mNw5h1tMZD-28">
          <mxGeometry x="20" y="40" width="60" height="30" as="geometry" />
        </mxCell>
        <mxCell id="mUfKcXC8p5mNw5h1tMZD-29" value="Action 2" style="swimlane;swimlaneHead=0;swimlaneBody=0;fontStyle=0;strokeColor=inherit;connectable=0;fillColor=none;startSize=40;collapsible=0;recursiveResize=0;expand=0;fontSize=16;" vertex="1" parent="mUfKcXC8p5mNw5h1tMZD-27">
          <mxGeometry x="133" width="94" height="80" as="geometry">
            <mxRectangle width="94" height="80" as="alternateBounds" />
          </mxGeometry>
        </mxCell>
        <mxCell id="mUfKcXC8p5mNw5h1tMZD-43" value="8" style="text;html=1;align=center;verticalAlign=middle;whiteSpace=wrap;rounded=0;fontSize=18;" vertex="1" parent="mUfKcXC8p5mNw5h1tMZD-29">
          <mxGeometry x="17" y="40" width="60" height="30" as="geometry" />
        </mxCell>
        <mxCell id="mUfKcXC8p5mNw5h1tMZD-30" value="Action 3" style="swimlane;swimlaneHead=0;swimlaneBody=0;fontStyle=0;strokeColor=inherit;connectable=0;fillColor=none;startSize=40;collapsible=0;recursiveResize=0;expand=0;fontSize=16;" vertex="1" parent="mUfKcXC8p5mNw5h1tMZD-27">
          <mxGeometry x="227" width="93" height="80" as="geometry">
            <mxRectangle width="93" height="80" as="alternateBounds" />
          </mxGeometry>
        </mxCell>
        <mxCell id="mUfKcXC8p5mNw5h1tMZD-44" value="2" style="text;html=1;align=center;verticalAlign=middle;whiteSpace=wrap;rounded=0;fontSize=18;" vertex="1" parent="mUfKcXC8p5mNw5h1tMZD-30">
          <mxGeometry x="17.389999999999986" y="40" width="60" height="30" as="geometry" />
        </mxCell>
        <mxCell id="mUfKcXC8p5mNw5h1tMZD-31" value="State 2" style="shape=tableRow;horizontal=0;swimlaneHead=0;swimlaneBody=0;top=0;left=0;strokeColor=inherit;bottom=0;right=0;dropTarget=0;fontStyle=0;fillColor=none;points=[[0,0.5],[1,0.5]];portConstraint=eastwest;startSize=40;collapsible=0;recursiveResize=0;expand=0;fontSize=16;" vertex="1" parent="mUfKcXC8p5mNw5h1tMZD-26">
          <mxGeometry y="120" width="320" height="80" as="geometry" />
        </mxCell>
        <mxCell id="mUfKcXC8p5mNw5h1tMZD-32" value="" style="swimlane;swimlaneHead=0;swimlaneBody=0;fontStyle=0;connectable=0;strokeColor=inherit;fillColor=none;startSize=0;collapsible=0;recursiveResize=0;expand=0;fontSize=16;" vertex="1" parent="mUfKcXC8p5mNw5h1tMZD-31">
          <mxGeometry x="40" width="93" height="80" as="geometry">
            <mxRectangle width="93" height="80" as="alternateBounds" />
          </mxGeometry>
        </mxCell>
        <mxCell id="mUfKcXC8p5mNw5h1tMZD-45" value="1" style="text;html=1;align=center;verticalAlign=middle;whiteSpace=wrap;rounded=0;fontSize=18;" vertex="1" parent="mUfKcXC8p5mNw5h1tMZD-32">
          <mxGeometry x="20" y="25" width="60" height="30" as="geometry" />
        </mxCell>
        <mxCell id="mUfKcXC8p5mNw5h1tMZD-33" value="" style="swimlane;swimlaneHead=0;swimlaneBody=0;fontStyle=0;connectable=0;strokeColor=inherit;fillColor=none;startSize=0;collapsible=0;recursiveResize=0;expand=0;fontSize=16;" vertex="1" parent="mUfKcXC8p5mNw5h1tMZD-31">
          <mxGeometry x="133" width="94" height="80" as="geometry">
            <mxRectangle width="94" height="80" as="alternateBounds" />
          </mxGeometry>
        </mxCell>
        <mxCell id="mUfKcXC8p5mNw5h1tMZD-46" value="32" style="text;html=1;align=center;verticalAlign=middle;whiteSpace=wrap;rounded=0;fontSize=18;" vertex="1" parent="mUfKcXC8p5mNw5h1tMZD-33">
          <mxGeometry x="17" y="30" width="60" height="30" as="geometry" />
        </mxCell>
        <mxCell id="mUfKcXC8p5mNw5h1tMZD-34" value="" style="swimlane;swimlaneHead=0;swimlaneBody=0;fontStyle=0;connectable=0;strokeColor=inherit;fillColor=none;startSize=0;collapsible=0;recursiveResize=0;expand=0;fontSize=16;" vertex="1" parent="mUfKcXC8p5mNw5h1tMZD-31">
          <mxGeometry x="227" width="93" height="80" as="geometry">
            <mxRectangle width="93" height="80" as="alternateBounds" />
          </mxGeometry>
        </mxCell>
        <mxCell id="mUfKcXC8p5mNw5h1tMZD-47" value="11" style="text;html=1;align=center;verticalAlign=middle;whiteSpace=wrap;rounded=0;fontSize=18;" vertex="1" parent="mUfKcXC8p5mNw5h1tMZD-34">
          <mxGeometry x="17.389999999999986" y="30" width="60" height="30" as="geometry" />
        </mxCell>
        <mxCell id="mUfKcXC8p5mNw5h1tMZD-35" value="State 3" style="shape=tableRow;horizontal=0;swimlaneHead=0;swimlaneBody=0;top=0;left=0;strokeColor=inherit;bottom=0;right=0;dropTarget=0;fontStyle=0;fillColor=none;points=[[0,0.5],[1,0.5]];portConstraint=eastwest;startSize=40;collapsible=0;recursiveResize=0;expand=0;fontSize=16;" vertex="1" parent="mUfKcXC8p5mNw5h1tMZD-26">
          <mxGeometry y="200" width="320" height="80" as="geometry" />
        </mxCell>
        <mxCell id="mUfKcXC8p5mNw5h1tMZD-36" value="" style="swimlane;swimlaneHead=0;swimlaneBody=0;fontStyle=0;connectable=0;strokeColor=inherit;fillColor=none;startSize=0;collapsible=0;recursiveResize=0;expand=0;fontSize=16;" vertex="1" parent="mUfKcXC8p5mNw5h1tMZD-35">
          <mxGeometry x="40" width="93" height="80" as="geometry">
            <mxRectangle width="93" height="80" as="alternateBounds" />
          </mxGeometry>
        </mxCell>
        <mxCell id="mUfKcXC8p5mNw5h1tMZD-51" value="-1" style="text;html=1;align=center;verticalAlign=middle;whiteSpace=wrap;rounded=0;fontSize=18;" vertex="1" parent="mUfKcXC8p5mNw5h1tMZD-36">
          <mxGeometry x="16.5" y="25" width="60" height="30" as="geometry" />
        </mxCell>
        <mxCell id="mUfKcXC8p5mNw5h1tMZD-37" value="" style="swimlane;swimlaneHead=0;swimlaneBody=0;fontStyle=0;connectable=0;strokeColor=inherit;fillColor=none;startSize=0;collapsible=0;recursiveResize=0;expand=0;fontSize=16;" vertex="1" parent="mUfKcXC8p5mNw5h1tMZD-35">
          <mxGeometry x="133" width="94" height="80" as="geometry">
            <mxRectangle width="94" height="80" as="alternateBounds" />
          </mxGeometry>
        </mxCell>
        <mxCell id="mUfKcXC8p5mNw5h1tMZD-50" value="1" style="text;html=1;align=center;verticalAlign=middle;whiteSpace=wrap;rounded=0;fontSize=18;" vertex="1" parent="mUfKcXC8p5mNw5h1tMZD-37">
          <mxGeometry x="17" y="25" width="60" height="30" as="geometry" />
        </mxCell>
        <mxCell id="mUfKcXC8p5mNw5h1tMZD-38" value="" style="swimlane;swimlaneHead=0;swimlaneBody=0;fontStyle=0;connectable=0;strokeColor=inherit;fillColor=none;startSize=0;collapsible=0;recursiveResize=0;expand=0;fontSize=16;" vertex="1" parent="mUfKcXC8p5mNw5h1tMZD-35">
          <mxGeometry x="227" width="93" height="80" as="geometry">
            <mxRectangle width="93" height="80" as="alternateBounds" />
          </mxGeometry>
        </mxCell>
        <mxCell id="mUfKcXC8p5mNw5h1tMZD-49" value="27" style="text;html=1;align=center;verticalAlign=middle;whiteSpace=wrap;rounded=0;fontSize=18;" vertex="1" parent="mUfKcXC8p5mNw5h1tMZD-38">
          <mxGeometry x="18.44999999999999" y="25" width="60" height="30" as="geometry" />
        </mxCell>
      </root>
    </mxGraphModel>
  </diagram>
</mxfile>
